<svg width="30" height="30" viewBox="0 0 30 30" fill="none" xmlns="http://www.w3.org/2000/svg">
<circle cx="15" cy="15" r="15" fill="#FDFDFD"/>
<path d="M15 29.546C23.0333 29.546 29.5455 23.0338 29.5455 15.0005C29.5455 6.9673 23.0333 0.455078 15 0.455078C6.96681 0.455078 0.45459 6.9673 0.45459 15.0005C0.45459 23.0338 6.96681 29.546 15 29.546Z" fill="#FD492A"/>
<path d="M23.8639 7.0459H12.5002C12.3639 7.0459 12.2729 7.13681 12.2729 7.27317V10.0004C12.2729 10.1368 12.3639 10.2277 12.5002 10.2277H23.8639C24.0002 10.2277 24.0911 10.1368 24.0911 10.0004V7.27317C24.0911 7.13681 24.0002 7.0459 23.8639 7.0459Z" fill="#FEFEFE"/>
<path d="M23.8639 13.4092H12.5002C12.3639 13.4092 12.2729 13.5001 12.2729 13.6365V16.3637C12.2729 16.5001 12.3639 16.591 12.5002 16.591H23.8639C24.0002 16.591 24.0911 16.5001 24.0911 16.3637V13.6365C24.0911 13.5001 24.0002 13.4092 23.8639 13.4092Z" fill="#FEFEFE"/>
<path d="M23.8639 19.7734H12.5002C12.3639 19.7734 12.2729 19.8643 12.2729 20.0007V22.728C12.2729 22.8643 12.3639 22.9553 12.5002 22.9553H23.8639C24.0002 22.9553 24.0911 22.8643 24.0911 22.728V20.0007C24.0911 19.8643 24.0002 19.7734 23.8639 19.7734Z" fill="#FEFEFE"/>
<path d="M8.86373 7.0459H6.13645C6.00009 7.0459 5.90918 7.13681 5.90918 7.27317V10.0004C5.90918 10.1368 6.00009 10.2277 6.13645 10.2277H8.86373C9.00009 10.2277 9.091 10.1368 9.091 10.0004V7.27317C9.091 7.13681 9.00009 7.0459 8.86373 7.0459Z" fill="#FEFEFE"/>
<path d="M8.86373 13.4092H6.13645C6.00009 13.4092 5.90918 13.5001 5.90918 13.6365V16.3637C5.90918 16.5001 6.00009 16.591 6.13645 16.591H8.86373C9.00009 16.591 9.091 16.5001 9.091 16.3637V13.6365C9.091 13.5001 9.00009 13.4092 8.86373 13.4092Z" fill="#FEFEFE"/>
<path d="M8.86373 19.7734H6.13645C6.00009 19.7734 5.90918 19.8643 5.90918 20.0007V22.728C5.90918 22.8643 6.00009 22.9553 6.13645 22.9553H8.86373C9.00009 22.9553 9.091 22.8643 9.091 22.728V20.0007C9.091 19.8643 9.00009 19.7734 8.86373 19.7734Z" fill="#FEFEFE"/>
</svg>
